<?xml version="1.0" standalone="no"?>
<!DOCTYPE svg PUBLIC "-//W3C//DTD SVG 20010904//EN"
 "http://www.w3.org/TR/2001/REC-SVG-20010904/DTD/svg10.dtd">
<svg version="1.0" xmlns="http://www.w3.org/2000/svg"
 width="450.000000pt" height="450.000000pt" viewBox="0 0 450.000000 450.000000"
 preserveAspectRatio="xMidYMid meet">

<g transform="translate(0.000000,450.000000) scale(0.100000,-0.100000)"
fill="#ffffff" stroke="none">
<path d="M2000 4315 c-182 -23 -300 -52 -475 -117 -507 -188 -916 -562 -1150
-1051 -444 -930 -144 -2042 708 -2618 257 -173 534 -284 843 -336 149 -25 505
-25 649 0 340 60 649 189 908 380 l69 50 -71 71 -71 71 0 68 c0 37 -3 67 -6
67 -3 0 -26 -18 -52 -39 -190 -158 -480 -292 -757 -351 -145 -31 -430 -38
-585 -16 -413 61 -761 240 -1046 538 -122 129 -211 257 -294 423 -83 168 -122
276 -157 444 -25 115 -27 145 -27 351 0 206 2 236 27 351 14 69 40 166 57 215
45 131 160 355 237 464 87 122 291 326 413 413 192 136 459 250 702 299 98 20
142 23 333 22 200 0 232 -2 346 -27 167 -35 275 -74 444 -157 184 -92 303
-178 455 -330 146 -146 234 -266 324 -440 99 -193 150 -352 182 -570 22 -155
15 -440 -16 -585 -58 -275 -194 -568 -351 -757 -21 -26 -39 -49 -39 -52 0 -3
30 -6 67 -6 l68 0 71 -71 71 -71 50 69 c149 206 265 444 332 683 64 232 87
557 56 800 -77 610 -404 1140 -914 1482 -405 271 -918 393 -1401 333z"/>
<path d="M2005 3694 c-639 -118 -1112 -606 -1205 -1243 -20 -132 -8 -401 24
-533 130 -554 572 -987 1127 -1103 175 -37 430 -37 601 0 225 50 475 169 623
298 l36 32 -110 110 -110 109 -23 -21 c-47 -42 -179 -121 -264 -157 -441 -185
-930 -90 -1269 247 -557 553 -408 1497 293 1847 172 86 328 123 522 123 316 1
593 -114 816 -338 381 -380 451 -970 168 -1422 -31 -48 -65 -98 -77 -111 l-21
-23 109 -109 c60 -60 113 -106 117 -103 18 10 116 149 161 228 180 309 236
708 151 1064 -128 540 -549 959 -1092 1088 -91 21 -136 26 -302 29 -143 2
-216 -1 -275 -12z"/>
<path d="M2097 3084 c-220 -40 -428 -177 -554 -367 -282 -424 -126 -998 334
-1230 28 -15 91 -39 140 -53 77 -24 106 -27 228 -28 211 -1 304 29 515 163 12
8 -2 27 -75 100 -49 50 -94 91 -100 91 -6 0 -49 -38 -95 -85 l-85 -85 -21 62
-21 63 -89 -3 c-262 -10 -483 156 -549 413 -72 284 123 594 413 654 178 37
363 -19 491 -148 115 -115 166 -244 159 -405 l-3 -89 63 -21 62 -21 -85 -85
c-47 -46 -85 -89 -85 -95 0 -6 41 -51 91 -100 73 -73 92 -87 100 -75 134 211
164 304 163 515 -1 122 -4 151 -28 230 -128 422 -539 677 -969 599z"/>
<path d="M2139 2452 c-77 -40 -113 -100 -117 -196 -3 -64 0 -76 28 -123 37
-63 113 -113 174 -113 26 0 37 4 34 13 -3 6 -13 36 -23 66 l-17 53 53 55 c74
75 77 76 144 53 32 -11 61 -18 65 -15 13 8 -6 82 -34 129 -60 102 -195 136
-307 78z"/>
<path d="M2293 2208 l-21 -23 77 -232 c43 -128 81 -236 84 -240 4 -4 41 26 81
66 l74 73 441 -440 441 -441 1 -93 1 -93 59 -54 59 -54 0 81 c0 45 2 82 5 82
2 0 27 -22 55 -49 l50 -49 0 -90 0 -90 63 -61 62 -60 3 85 3 85 54 -55 55 -55
0 -89 0 -88 60 -61 60 -60 0 118 0 119 115 0 c63 0 115 2 115 4 0 2 -26 29
-57 60 l-58 56 -90 0 -90 1 -55 54 -55 55 88 0 c48 0 87 2 87 5 0 3 -28 32
-62 65 l-63 60 -87 0 -87 0 -53 53 -53 52 84 3 85 3 -59 59 -59 60 -89 0 -89
0 -441 441 -441 440 78 78 78 78 -233 77 c-129 43 -239 79 -245 82 -5 2 -20
-6 -31 -18z"/>
</g>
</svg>
